<svg width="1257" height="261" viewBox="0 0 1257 261" fill="none" xmlns="http://www.w3.org/2000/svg">
<style>
.wm { fill: #131722; } @media (prefers-color-scheme: dark) {.wm { fill: #fff; }}
</style>
<path d="M69.4906 178.635H19.8544V138.852H79.4178V148.798C88.3523 136.863 103.243 128.907 119.127 128.907C130.047 128.907 139.974 132.885 148.908 138.852H158.836V148.798H178.69V59.2875C178.69 48.3473 169.756 39.3962 158.836 39.3962H19.8544C8.9345 39.3962 0 48.3473 0 59.2875V178.635C0 189.575 8.9345 198.526 19.8544 198.526H73.4615C70.4833 192.559 69.4906 185.597 69.4906 178.635ZM99.2722 79.1787H158.836V118.961H99.2722V79.1787ZM19.8544 79.1787H79.4178V118.961H19.8544V79.1787Z" class="wm"/>
<path fill-rule="evenodd" clip-rule="evenodd" d="M146.923 168.689C142.952 156.754 132.032 148.798 119.127 148.798C102.25 148.798 89.345 161.727 89.345 178.635C89.345 195.542 102.25 208.472 119.127 208.472C132.032 208.472 142.952 200.515 146.923 188.58H168.763V208.472H188.617V188.58H208.472V168.689H146.923ZM119.127 188.58C113.17 188.58 109.199 183.608 109.199 178.635C109.199 173.662 113.17 168.689 119.127 168.689C125.083 168.689 129.054 173.662 129.054 178.635C129.054 183.608 125.083 188.58 119.127 188.58Z" fill="#DA4E5B"/>
<path d="M325.057 209H279.041L330.886 51.929H389.174L441.02 209H395.003L360.644 95.1849H359.417L325.057 209ZM316.468 147.031H402.979V178.936H316.468V147.031ZM533.15 157.461V91.1967H575.485V209H535.297V186.605H534.07C531.514 194.121 527.04 200.001 520.648 204.245C514.257 208.438 506.664 210.534 497.87 210.534C489.638 210.534 482.429 208.642 476.242 204.858C470.107 201.075 465.326 195.86 461.9 189.213C458.526 182.566 456.813 174.947 456.762 166.358V91.1967H499.097V157.461C499.148 163.29 500.631 167.866 503.546 171.189C506.511 174.513 510.653 176.175 515.97 176.175C519.498 176.175 522.54 175.433 525.097 173.95C527.704 172.417 529.698 170.269 531.079 167.508C532.511 164.696 533.201 161.347 533.15 157.461ZM667.27 91.1967V121.875H589.655V91.1967H667.27ZM604.687 62.973H647.022V171.113C647.022 172.749 647.304 174.129 647.866 175.254C648.428 176.328 649.298 177.146 650.474 177.709C651.65 178.22 653.158 178.475 654.999 178.475C656.277 178.475 657.76 178.322 659.447 178.015C661.185 177.709 662.464 177.453 663.282 177.248L669.417 207.006C667.525 207.568 664.816 208.259 661.288 209.077C657.811 209.895 653.669 210.432 648.863 210.687C639.148 211.199 630.993 210.202 624.397 207.696C617.802 205.14 612.842 201.126 609.519 195.655C606.195 190.184 604.585 183.333 604.687 175.101V62.973ZM729.412 142.736V209H687.076V51.929H727.878V113.592H729.105C731.764 106.076 736.187 100.221 742.373 96.0285C748.56 91.7847 755.999 89.6628 764.691 89.6628C773.026 89.6628 780.26 91.5546 786.396 95.3382C792.583 99.1219 797.363 104.337 800.738 110.984C804.164 117.631 805.851 125.249 805.8 133.839V209H763.464V142.736C763.515 136.907 762.058 132.331 759.093 129.007C756.178 125.684 752.011 124.022 746.591 124.022C743.166 124.022 740.149 124.789 737.541 126.323C734.985 127.806 732.991 129.953 731.559 132.765C730.179 135.526 729.463 138.85 729.412 142.736ZM826.699 209V91.1967H869.035V209H826.699ZM847.867 78.9256C842.14 78.9256 837.232 77.0338 833.142 73.2501C829.051 69.4665 827.006 64.916 827.006 59.5985C827.006 54.281 829.051 49.7304 833.142 45.9468C837.232 42.1632 842.14 40.2714 847.867 40.2714C853.645 40.2714 858.553 42.1632 862.592 45.9468C866.683 49.7304 868.728 54.281 868.728 59.5985C868.728 64.916 866.683 69.4665 862.592 73.2501C858.553 77.0338 853.645 78.9256 847.867 78.9256ZM961.164 91.1967V121.875H882.322V91.1967H961.164ZM897.354 209V87.8222C897.354 78.1075 899.093 70.0545 902.57 63.6633C906.046 57.272 910.955 52.4914 917.295 49.3213C923.635 46.1513 931.1 44.5663 939.69 44.5663C945.059 44.5663 950.274 44.9753 955.336 45.7934C960.449 46.6115 964.232 47.3273 966.686 47.9408L960.551 78.312C959.017 77.8518 957.227 77.4939 955.182 77.2383C953.137 76.9315 951.348 76.7781 949.814 76.7781C945.825 76.7781 943.141 77.6217 941.761 79.309C940.38 80.9963 939.69 83.2205 939.69 85.9815V209H897.354ZM977.5 209V91.1967H1019.84V209H977.5ZM998.668 78.9256C992.942 78.9256 988.033 77.0338 983.943 73.2501C979.852 69.4665 977.807 64.916 977.807 59.5985C977.807 54.281 979.852 49.7304 983.943 45.9468C988.033 42.1632 992.942 40.2714 998.668 40.2714C1004.45 40.2714 1009.35 42.1632 1013.39 45.9468C1017.48 49.7304 1019.53 54.281 1019.53 59.5985C1019.53 64.916 1017.48 69.4665 1013.39 73.2501C1009.35 77.0338 1004.45 78.9256 998.668 78.9256ZM1097.85 211.147C1085.28 211.147 1074.44 208.744 1065.34 203.938C1056.29 199.081 1049.31 192.127 1044.4 183.077C1039.54 173.976 1037.11 163.085 1037.11 150.405C1037.11 138.236 1039.57 127.601 1044.47 118.5C1049.38 109.399 1056.31 102.317 1065.26 97.2556C1074.21 92.1938 1084.76 89.6628 1096.93 89.6628C1105.83 89.6628 1113.88 91.0433 1121.09 93.8044C1128.3 96.5654 1134.46 100.579 1139.58 105.845C1144.69 111.061 1148.63 117.401 1151.39 124.866C1154.15 132.331 1155.53 140.742 1155.53 150.098V159.915H1050.3V136.6H1116.57C1116.52 133.226 1115.65 130.26 1113.96 127.703C1112.32 125.096 1110.1 123.076 1107.29 121.645C1104.53 120.162 1101.38 119.42 1097.85 119.42C1094.43 119.42 1091.28 120.162 1088.42 121.645C1085.56 123.076 1083.26 125.07 1081.52 127.627C1079.83 130.183 1078.94 133.174 1078.83 136.6V161.756C1078.83 165.54 1079.63 168.914 1081.21 171.88C1082.8 174.845 1085.07 177.172 1088.04 178.859C1091 180.546 1094.58 181.39 1098.77 181.39C1101.69 181.39 1104.35 180.981 1106.75 180.163C1109.2 179.345 1111.3 178.169 1113.04 176.635C1114.78 175.05 1116.06 173.158 1116.87 170.959H1155.53C1154.2 179.14 1151.05 186.247 1146.09 192.281C1141.14 198.263 1134.57 202.916 1126.38 206.239C1118.25 209.511 1108.74 211.147 1097.85 211.147ZM1172.8 209V91.1967H1213.91V113.592H1215.14C1217.29 105.309 1220.69 99.2497 1225.34 95.4149C1230.04 91.5802 1235.54 89.6628 1241.83 89.6628C1243.67 89.6628 1245.48 89.8162 1247.27 90.123C1249.12 90.3787 1250.88 90.7621 1252.57 91.2734V127.397C1250.47 126.681 1247.89 126.144 1244.82 125.786C1241.75 125.428 1239.12 125.249 1236.92 125.249C1232.78 125.249 1229.05 126.195 1225.72 128.087C1222.45 129.928 1219.87 132.535 1217.98 135.91C1216.09 139.233 1215.14 143.145 1215.14 147.644V209H1172.8Z" class="wm"/>
</svg>
